<?xml version="1.0" encoding="UTF-8"?>
<svg xmlns="http://www.w3.org/2000/svg" xmlns:xlink="http://www.w3.org/1999/xlink" width="159.559" height="32.014" viewBox="0 0 159.559 32.014">
  <defs>
    <clipPath id="a">
      <rect width="159.559" height="32.014" fill="none"></rect>
    </clipPath>
  </defs>
  <g clip-path="url(#a)">
    <path d="M578.964,10.35a2.286,2.286,0,0,1,2.268-2.268,2.268,2.268,0,0,1,0,4.536,2.286,2.286,0,0,1-2.268-2.268" transform="translate(-455.094 -6.353)" fill="#ffa400"></path>
    <path d="M450.669,10.35a2.268,2.268,0,1,1,2.268,2.268,2.286,2.286,0,0,1-2.268-2.268" transform="translate(-354.248 -6.353)" fill="#ffa400"></path>
    <path d="M272.051,10.35a2.268,2.268,0,1,1,2.268,2.268,2.286,2.286,0,0,1-2.268-2.268" transform="translate(-213.846 -6.353)" fill="#ffa400"></path>
    <rect width="3.663" height="16.852" transform="translate(58.659 8.323)" fill="#fff"></rect>
    <path d="M321.323,36.946a7.973,7.973,0,0,0-5.931,2.721v-2.3h-3.664V54.217h3.664V42.459a5.547,5.547,0,0,1,4.326-2.268c2.058,0,3.384.872,3.384,3.489V54.217h3.664V42.354c0-3.454-1.814-5.408-5.443-5.408" transform="translate(-245.034 -29.041)" fill="#fff"></path>
    <path d="M400.047,14.036v-.942c0-1.884.907-2.826,2.338-2.826a2.524,2.524,0,0,1,1.465.384l.8-2.721a6.069,6.069,0,0,0-2.931-.663c-3.105,0-5.338,2.058-5.338,5.827v.942h-2.791v3.21h2.791V30.888h3.663V17.245h6.211V30.888h3.664V14.036h-9.874Z" transform="translate(-309.383 -5.712)" fill="#fff"></path>
    <path d="M500.3,36.946a7.973,7.973,0,0,0-5.931,2.721v-2.3h-3.663V54.217h3.663V42.459a5.547,5.547,0,0,1,4.327-2.268c2.058,0,3.384.872,3.384,3.489V54.217h3.663V42.354c0-3.454-1.814-5.408-5.443-5.408" transform="translate(-385.719 -29.041)" fill="#fff"></path>
    <rect width="3.663" height="16.852" transform="translate(124.323 8.323)" fill="#fff"></rect>
    <path d="M617.455,36.008c-1.047,0-1.6-.837-1.6-1.989V25.192h3.419v-3.21H615.85V17.377h-3.664v4.605H609.4v3.21h2.791v9.735c0,2.791,1.5,4.326,4.326,4.326a4.834,4.834,0,0,0,3.454-1.082l-.872-2.756a2.365,2.365,0,0,1-1.64.593" transform="translate(-479.015 -13.659)" fill="#fff"></path>
    <path d="M676.842,38.9l-4.92,12.63L667,38.9h-3.907L670,55.964l-.837,1.919a2.283,2.283,0,0,1-2.407,1.466,3.83,3.83,0,0,1-1.4-.279l-.558,3.28a10.364,10.364,0,0,0,2.058.244c2.617-.035,4.64-.942,5.792-3.8l8.13-19.887Z" transform="translate(-521.225 -30.58)" fill="#fff"></path>
    <path d="M46.609,7.166l1.445,1.586,3.195-2.91A13.631,13.631,0,0,0,40.1,0a13.011,13.011,0,0,0-8.916,3.506c-2.461,2.251-4.322,5.356-6.122,8.359a39.957,39.957,0,0,1-5.334,7.552,8.96,8.96,0,0,1-6.64,2.473,8.8,8.8,0,0,1,0-17.6c4.1,0,6.851,3.006,7.817,4.26L23.259,4.76A13.138,13.138,0,0,0,0,13.091,13.106,13.106,0,0,0,13.091,26.181a13.261,13.261,0,0,0,9.69-3.745,43.089,43.089,0,0,0,5.963-8.361C30.464,11.2,32.085,8.5,34.1,6.658a8.8,8.8,0,0,1,12.511.509" fill="#ffa400"></path>
    <path d="M150.45,55.807V60.1h9.229l-.116.275a8.78,8.78,0,0,1-8.113,5.381,8.586,8.586,0,0,1-5.257-2.245,17.54,17.54,0,0,1-2.135-2.024l-2.4,3.874a13.044,13.044,0,0,0,18.656,1.416,12.727,12.727,0,0,0,4.077-6.763A12.347,12.347,0,0,0,164.7,55.8Z" transform="translate(-111.348 -43.865)" fill="#ffa400"></path>
  </g>
</svg>